<svg width="40" height="40" fill="none" xmlns="http://www.w3.org/2000/svg"><path fill="#F16718" d="M0 0h40v40H0z"/><path fill-rule="evenodd" clip-rule="evenodd" d="M10.63 16.701c0 .189-.106.299-.288.299H8.065c-.182 0-.288-.11-.288-.299v-8.03c0-.078-.045-.125-.121-.125H5.288c-.182 0-.288-.11-.288-.299V6.3C5 6.11 5.106 6 5.288 6h7.907c.182 0 .288.11.288.299v1.948c0 .189-.106.299-.288.299h-2.443c-.076 0-.122.047-.122.125v8.03Zm6.571 0c0 .189-.106.299-.288.299h-2.276c-.183 0-.289-.11-.289-.299V6.3c0-.189.106-.299.289-.299h2.26a.37.37 0 0 1 .35.204L19.083 9.3c.046.094.137.094.182 0l1.836-3.096a.37.37 0 0 1 .35-.204h2.26c.183 0 .289.11.289.299V16.7c0 .189-.106.299-.288.299h-2.277c-.182 0-.288-.11-.288-.299v-5.547c0-.125-.091-.141-.152-.047l-.94 1.619a.37.37 0 0 1-.35.204h-1.062a.37.37 0 0 1-.35-.204l-.94-1.619c-.06-.094-.152-.078-.152.047v5.547Z" fill="#fff"/></svg>